<svg width="199" height="120" viewBox="0 0 199 120" fill="none" xmlns="http://www.w3.org/2000/svg">
<path d="M98.1845 88.9822C98.1845 91.4532 97.513 93.78 96.1474 95.9631C94.8044 98.1222 92.924 100.041 90.5511 101.649C88.1557 103.28 85.2903 104.551 81.9323 105.487C78.5969 106.423 74.9704 106.902 71.0753 106.902C63.755 106.902 56.4349 106.926 49.1595 106.974C41.8616 107.022 34.5638 107.046 27.2436 107.046C23.1022 107.046 19.3413 106.59 16.0059 105.703C12.6705 104.815 9.80504 103.568 7.40969 101.984C5.01448 100.401 3.17876 98.5061 1.90281 96.2991C0.626705 94.0679 0 91.645 0 88.9822V75.0891C1.1489 63.8506 4.91028 55.0592 13.7001 51.3039V89.0062C13.7001 91.4771 14.9761 93.6121 17.5281 95.3633C20.0802 97.1146 23.3036 97.9783 27.1989 97.9783H71.0753C74.9928 97.9783 78.194 97.1146 80.7011 95.4115C83.2084 93.7081 84.462 91.573 84.462 89.0062C84.462 78.1629 84.4397 67.4156 84.4173 56.7402C84.3803 47.9322 84.3586 39.0586 84.3521 30.1334H77.4951L83.8804 15.0666L90.2655 0L96.6506 15.0666L103.036 30.1334H97.8325C97.8513 39.0523 97.9131 47.9088 98.0055 56.7162C98.1174 67.3916 98.1845 78.139 98.1845 88.9822Z" fill="url(#paint0_linear_2532_305)"/>
<path d="M198.01 50.0012C198.01 52.0403 197.988 54.2231 197.943 56.5262C197.921 58.8293 197.675 61.1084 197.227 63.3633C196.802 65.6182 196.063 67.8013 195.033 69.8884C194.003 71.9995 192.459 73.8226 190.422 75.406C188.407 76.9893 185.81 78.2366 182.676 79.1723C179.52 80.1079 175.602 80.5878 170.923 80.5878H128.054C124.003 80.5878 120.645 81.3315 117.981 82.8188C115.317 84.3301 113.974 86.3452 113.974 88.912C113.974 93.2781 114.041 97.5483 114.153 101.722C114.265 105.897 114.332 110.167 114.332 114.533C113.616 117.532 111.287 119.019 107.37 119.019C102.49 119.019 100.05 117.532 100.05 114.533C100.05 110.191 99.9826 105.921 99.8706 101.722C99.7586 97.5483 99.6916 93.2781 99.6916 88.9361C99.6916 86.3692 100.453 84.0182 101.952 81.8831C103.475 79.7482 105.512 77.9249 108.109 76.3896C110.705 74.8542 113.705 73.6547 117.13 72.7911C120.555 71.9515 124.204 71.5197 128.099 71.5197H170.856C174.908 71.5197 177.908 70.8959 179.856 69.6725C181.803 68.425 183.146 66.7937 183.863 64.7787C184.579 62.7875 184.87 60.4845 184.758 57.9177C184.646 55.3747 184.579 52.7119 184.579 49.977C184.579 47.4102 183.281 45.2752 180.706 43.572C178.109 41.8687 174.819 41.005 170.834 41.005H113.392V61.9959C113.392 64.8986 111.086 66.3619 106.474 66.3619C101.952 66.3619 99.6916 64.8986 99.6916 61.9959V31.937H170.901C174.953 31.937 178.647 32.3928 182.004 33.2804C185.34 34.1681 188.205 35.4155 190.601 36.9989C192.996 38.5822 194.832 40.4774 196.108 42.6844C197.384 44.9153 198.01 47.3382 198.01 50.0012Z" fill="#A60F9C"/>
<path d="M39.715 54.1794H29.568H23.745L23.6788 65.2839H39.5827H45.5465C45.3013 66.5 44.8662 67.3167 44.2441 67.7162C43.363 68.3286 41.6929 68.6304 39.2328 68.6304H24.0331C21.5731 68.6304 19.8885 68.3286 18.9721 67.7162C18.14 67.1569 17.7391 66.074 17.7545 64.4495L17.7969 55.1647C17.8126 53.5403 18.2573 52.4485 19.1317 51.8892C19.9704 51.2857 21.6405 50.9838 24.1503 50.9838H39.3416C41.8016 50.9838 43.4699 51.2857 44.3292 51.8892C45.0328 52.3508 45.4661 53.1142 45.6126 54.1794H39.715ZM54.6331 65.2839H74.1565L74.2973 54.1794H54.7657L54.6331 65.2839ZM48.7512 55.1647C48.815 53.4871 49.267 52.4042 50.0862 51.8892C50.9247 51.2857 52.5947 50.9838 55.1045 50.9838H73.8493C76.3093 50.9838 77.9941 51.2857 78.9116 51.8892C79.7782 52.5017 80.2114 53.5935 80.2026 55.1647L80.0937 64.4495C80.0644 66.1183 79.6196 67.2101 78.752 67.7162C77.8708 68.3286 76.1924 68.6304 73.7323 68.6304H54.9873C52.4858 68.6304 50.8178 68.3286 49.9927 67.7162C49.1623 67.2101 48.7291 66.1183 48.7088 64.4495L48.7512 55.1647Z" fill="#049DD9"/>
<path d="M17.8098 89.2718L17.8116 85.9252H31.8003C35.8821 85.9252 38.8555 85.4903 40.7194 84.6293C42.4371 83.7151 43.3386 82.277 43.4005 80.2976C43.3852 78.5224 42.6628 77.1464 41.2399 76.1878C39.7519 75.2736 37.5997 74.8207 34.7851 74.8207H17.9478L17.9214 71.6252H34.7589C39.5718 71.6252 43.2579 72.3797 45.8314 73.9066C48.3549 75.4245 49.6338 77.5548 49.6679 80.2976C49.6834 82.073 49.1662 83.5642 48.1319 84.7802C47.0344 86.1561 45.6066 87.1946 43.8644 87.9048C42.6336 88.4107 41.227 88.7659 39.6441 88.97C37.2875 89.1741 35.1064 89.2718 33.1165 89.2718H17.8098ZM52.5814 89.2718L52.5832 85.9252H58.6296H79.3274L79.3342 89.2718H52.5814ZM52.6298 81.5848L52.5997 78.549H58.7222H79.4203L79.3822 81.5848H58.7523H52.6298ZM52.5965 74.5901L52.693 71.6252H79.4456L79.4256 74.5901H58.719H52.5965Z" fill="#049DD9"/>
<path d="M119.278 55.8537L117.728 50.9401H118.437L119.553 54.5359L120.705 50.9401H121.303L122.455 54.5359L123.577 50.9401H124.281L122.74 55.8537H122.225L121.008 52.0733L119.784 55.8537H119.278ZM127.556 55.2882C128.168 55.2882 128.668 55.1114 129.055 54.7559C129.441 54.4024 129.634 53.9508 129.634 53.4028C129.634 52.8589 129.44 52.409 129.051 52.0518C128.662 51.6963 128.164 51.5175 127.556 51.5175C126.947 51.5175 126.451 51.6944 126.066 52.0498C125.681 52.4033 125.489 52.8549 125.489 53.4028C125.489 53.9508 125.681 54.4024 126.066 54.7559C126.451 55.1114 126.947 55.2882 127.556 55.2882ZM127.556 56.0069C126.74 56.0069 126.068 55.7595 125.542 55.2646C125.016 54.7716 124.752 54.151 124.752 53.4028C124.752 52.6527 125.014 52.0321 125.538 51.5431C126.064 51.0541 126.736 50.8105 127.556 50.8105C128.382 50.8105 129.058 51.0541 129.584 51.5411C130.108 52.0282 130.37 52.6487 130.37 53.4028C130.37 54.155 130.107 54.7755 129.581 55.2685C129.055 55.7613 128.38 56.0069 127.556 56.0069ZM131.536 55.8537V50.9401H132.132L134.008 53.8153L135.888 50.9401H136.484V55.8537H135.769V52.3208L134.008 55.0525L132.251 52.3208V55.8537H131.536ZM138.054 55.8537V50.9401H142.354V51.659H138.769V52.8844H141.122V53.5913H138.769V55.1467H142.552V55.8537H138.054ZM143.585 55.8537V50.9401H143.961L146.873 54.3926V50.9401H147.577V55.8537H147.201L144.289 52.413V55.8537H143.585ZM119.135 60.0994H121.752C121.995 60.0994 122.184 60.0423 122.314 59.9265C122.445 59.8106 122.511 59.6457 122.511 59.4297C122.511 59.2195 122.448 59.0566 122.322 58.9407C122.197 58.8247 122.018 58.7679 121.785 58.7679H119.135V60.0994ZM119.135 60.818V62.9626H118.42V58.049H121.752C122.225 58.049 122.591 58.1688 122.853 58.4085C123.115 58.648 123.247 58.9858 123.247 59.4198C123.247 59.8303 123.117 60.1661 122.857 60.4272C122.595 60.6885 122.252 60.818 121.829 60.818H119.135ZM124.986 60.0994H127.424C127.671 60.0994 127.86 60.0423 127.99 59.9265C128.12 59.8106 128.186 59.6457 128.186 59.4297C128.186 59.2156 128.12 59.0506 127.99 58.9387C127.86 58.8247 127.671 58.7679 127.424 58.7679H124.986V60.0994ZM124.986 60.818V62.9626H124.272V58.0609H127.424C127.893 58.0609 128.259 58.1827 128.525 58.4241C128.791 58.6657 128.923 59.0015 128.923 59.4315C128.923 59.7793 128.818 60.0817 128.607 60.337C128.399 60.5923 128.126 60.7493 127.788 60.8063L129.066 62.9626H128.287L126.986 60.818H124.986ZM132.628 62.3971C133.24 62.3971 133.741 62.2203 134.127 61.8648C134.514 61.5113 134.706 61.0597 134.706 60.5117C134.706 59.9678 134.512 59.518 134.123 59.1607C133.735 58.8052 133.237 58.6264 132.628 58.6264C132.02 58.6264 131.523 58.8033 131.138 59.1587C130.753 59.5122 130.561 59.9639 130.561 60.5117C130.561 61.0597 130.753 61.5113 131.138 61.8648C131.523 62.2203 132.02 62.3971 132.628 62.3971ZM132.628 63.1158C131.813 63.1158 131.14 62.8684 130.614 62.3735C130.088 61.8805 129.824 61.26 129.824 60.5117C129.824 59.7616 130.086 59.141 130.611 58.652C131.136 58.163 131.809 57.9194 132.628 57.9194C133.455 57.9194 134.131 58.163 134.657 58.6501C135.181 59.137 135.443 59.7576 135.443 60.5117C135.443 61.2639 135.179 61.8844 134.653 62.3775C134.127 62.8703 133.453 63.1158 132.628 63.1158ZM139.72 61.0537V60.3467H141.611V61.8294C141.346 62.2497 141.001 62.5698 140.574 62.7877C140.149 63.0058 139.654 63.1158 139.092 63.1158C138.247 63.1158 137.556 62.8722 137.019 62.3832C136.482 61.8942 136.213 61.2737 136.213 60.5236C136.213 59.7713 136.482 59.1508 137.023 58.6578C137.563 58.165 138.252 57.9194 139.092 57.9194C139.621 57.9194 140.09 58.0176 140.501 58.2121C140.911 58.4085 141.252 58.6952 141.523 59.0742L140.972 59.4984C140.778 59.2274 140.515 59.0133 140.186 58.8581C139.854 58.7031 139.489 58.6264 139.092 58.6264C138.465 58.6264 137.952 58.8052 137.55 59.1607C137.149 59.518 136.949 59.9678 136.949 60.5117C136.949 61.0557 137.149 61.5054 137.549 61.8628C137.948 62.2183 138.461 62.3971 139.092 62.3971C139.486 62.3971 139.85 62.3204 140.186 62.1672C140.519 62.014 140.754 61.8197 140.886 61.5821V61.0537H139.72ZM143.647 60.0994H146.085C146.332 60.0994 146.521 60.0423 146.651 59.9265C146.781 59.8106 146.847 59.6457 146.847 59.4297C146.847 59.2156 146.781 59.0506 146.651 58.9387C146.521 58.8247 146.332 58.7679 146.085 58.7679H143.647V60.0994ZM143.647 60.818V62.9626H142.933V58.0609H146.085C146.554 58.0609 146.92 58.1827 147.186 58.4241C147.452 58.6657 147.584 59.0015 147.584 59.4315C147.584 59.7793 147.479 60.0817 147.269 60.337C147.06 60.5923 146.787 60.7493 146.449 60.8063L147.727 62.9626H146.948L145.647 60.818H143.647ZM149.471 61.0656H151.264L150.373 59.1822L149.471 61.0656ZM147.809 62.9626L150.142 58.049H150.593L152.944 62.9626H152.176L151.581 61.7136H149.16L148.568 62.9626H147.809ZM153.627 62.9626V58.049H154.223L156.1 60.9242L157.98 58.049H158.576V62.9626H157.861V59.4297L156.1 62.1614L154.342 59.4297V62.9626H153.627ZM160.146 62.9626V58.049H160.742L162.618 60.9242L164.498 58.049H165.094V62.9626H164.379V59.4297L162.618 62.1614L160.861 59.4297V62.9626H160.146ZM166.676 62.9626V58.0373H167.401V62.9626H166.676ZM168.996 62.9626V58.049H169.371L172.283 61.5016V58.049H172.987V62.9626H172.611L169.699 59.5219V62.9626H168.996ZM177.669 61.0537V60.3467H179.56V61.8294C179.295 62.2497 178.95 62.5698 178.523 62.7877C178.098 63.0058 177.603 63.1158 177.041 63.1158C176.196 63.1158 175.505 62.8722 174.968 62.3832C174.431 61.8942 174.162 61.2737 174.162 60.5236C174.162 59.7713 174.431 59.1508 174.972 58.6578C175.512 58.165 176.201 57.9194 177.041 57.9194C177.57 57.9194 178.039 58.0176 178.45 58.2121C178.86 58.4085 179.201 58.6952 179.473 59.0742L178.921 59.4984C178.727 59.2274 178.465 59.0133 178.135 58.8581C177.803 58.7031 177.438 58.6264 177.041 58.6264C176.414 58.6264 175.901 58.8052 175.499 59.1607C175.098 59.518 174.899 59.9678 174.899 60.5117C174.899 61.0557 175.098 61.5054 175.498 61.8628C175.897 62.2183 176.41 62.3971 177.041 62.3971C177.435 62.3971 177.799 62.3204 178.135 62.1672C178.468 62.014 178.703 61.8197 178.835 61.5821V61.0537H177.669Z" fill="#A60F9C"/>
<path fill-rule="evenodd" clip-rule="evenodd" d="M17.8845 72.0687H23.1959V84.3004H17.8845V72.0687Z" fill="#049DD9"/>
<defs>
<linearGradient id="paint0_linear_2532_305" x1="76.4424" y1="100.387" x2="21.2058" y2="9.94973" gradientUnits="userSpaceOnUse">
<stop stop-color="#A60F9C"/>
<stop offset="1" stop-color="#049DD9"/>
</linearGradient>
</defs>
</svg>
